{
  "accessors": [
    {
      "bufferView": 2,
      "componentType": 5126,
      "count": 1675,
      "max": [
        2.8883063793182373,
        0.4698669910430908,
        0.7726477980613708
      ],
      "min": [
        -1.994426965713501,
        -0.4698669910430908,
        -0.8690391778945923
      ],
      "type": "VEC3"
    },
    {
      "bufferView": 2,
      "byteOffset": 20100,
      "componentType": 5126,
      "count": 1675,
      "max": [
        0.998600959777832,
        1.0,
        0.9999998211860657
      ],
      "min": [
        -0.998600959777832,
        -1.0,
        -0.9997948408126831
      ],
      "type": "VEC3"
    },
    {
      "bufferView": 1,
      "componentType": 5126,
      "count": 1675,
      "max": [
        0.9906796813011169,
        0.9958413243293762
      ],
      "min": [
        0.004158787429332733,
        0.004158770199865103
      ],
      "type": "VEC2"
    },
    {
      "bufferView": 0,
      "componentType": 5125,
      "count": 6342,
      "type": "SCALAR"
    }
  ],
  "asset": {
    "extras": {
      "author": "Aenoria (https://sketchfab.com/Aenoria)",
      "license": "CC-BY-4.0 (http://creativecommons.org/licenses/by/4.0/)",
      "source": "https://sketchfab.com/3d-models/stylized-blunderbuss-hand-painted-f3ef63310a7047a39de58cff734f56c8",
      "title": "Stylized Blunderbuss – Hand-painted"
    },
    "generator": "Sketchfab-16.75.0",
    "version": "2.0"
  },
  "bufferViews": [
    {
      "buffer": 0,
      "byteLength": 25368,
      "name": "floatBufferViews",
      "target": 34963
    },
    {
      "buffer": 0,
      "byteLength": 13400,
      "byteOffset": 25368,
      "byteStride": 8,
      "name": "floatBufferViews",
      "target": 34962
    },
    {
      "buffer": 0,
      "byteLength": 40200,
      "byteOffset": 38768,
      "byteStride": 12,
      "name": "floatBufferViews",
      "target": 34962
    }
  ],
  "buffers": [
    {
      "byteLength": 78968,
      "uri": "scene.bin"
    }
  ],
  "extensionsUsed": [
    "KHR_materials_specular"
  ],
  "images": [
    {
      "uri": "textures/Material_baseColor.png"
    }
  ],
  "materials": [
    {
      "doubleSided": true,
      "extensions": {
        "KHR_materials_specular": {
          "specularColorFactor": [
            1.0,
            1.0,
            1.0
          ],
          "specularFactor": 0.0
        }
      },
      "name": "Material",
      "pbrMetallicRoughness": {
        "baseColorTexture": {
          "index": 0
        },
        "metallicFactor": 0.0,
        "roughnessFactor": 0.18742914264119662
      }
    }
  ],
  "meshes": [
    {
      "name": "Blunderbuss_Material_0",
      "primitives": [
        {
          "attributes": {
            "NORMAL": 1,
            "POSITION": 0,
            "TEXCOORD_0": 2
          },
          "indices": 3,
          "material": 0,
          "mode": 4
        }
      ]
    }
  ],
  "nodes": [
    {
      "children": [
        1
      ],
      "matrix": [
        1.0,
        0.0,
        0.0,
        0.0,
        0.0,
        2.220446049250313e-16,
        -1.0,
        0.0,
        0.0,
        1.0,
        2.220446049250313e-16,
        0.0,
        0.0,
        0.0,
        0.0,
        1.0
      ],
      "name": "Sketchfab_model"
    },
    {
      "children": [
        2
      ],
      "matrix": [
        0.009999999776482582,
        0.0,
        0.0,
        0.0,
        0.0,
        0.0,
        0.009999999776482582,
        0.0,
        0.0,
        -0.009999999776482582,
        0.0,
        0.0,
        0.0,
        0.0,
        0.0,
        1.0
      ],
      "name": "395c7000627a48a793add01a067f95d7.fbx"
    },
    {
      "children": [
        3
      ],
      "name": "RootNode"
    },
    {
      "children": [
        4
      ],
      "matrix": [
        100.0,
        0.0,
        0.0,
        0.0,
        0.0,
        -1.629206793918314e-05,
        -99.99999999999868,
        0.0,
        0.0,
        99.99999999999868,
        -1.629206793918314e-05,
        0.0,
        78.43931579589844,
        80.34577941894531,
        -5.9604644775390625e-06,
        1.0
      ],
      "name": "Blunderbuss"
    },
    {
      "mesh": 0,
      "name": "Blunderbuss_Material_0"
    }
  ],
  "samplers": [
    {
      "magFilter": 9729,
      "minFilter": 9987,
      "wrapS": 10497,
      "wrapT": 10497
    }
  ],
  "scene": 0,
  "scenes": [
    {
      "name": "Sketchfab_Scene",
      "nodes": [
        0
      ]
    }
  ],
  "textures": [
    {
      "sampler": 0,
      "source": 0
    }
  ]
}
